<?xml version="1.0" encoding="UTF-8" standalone="no"?>
<svg version="1.1" viewBox="0 0 400 400" xmlns="http://www.w3.org/2000/svg">
<style type="text/css">
	.st0{fill:#0B254C;}
	.st1{fill:#03AAC8;}
</style>
<g transform="matrix(1.5526259,0,0,1.5526259,-110.48926,-110.49203)">
	<path class="st0" d="m 170.11,169.35 39.26,67.95 c 4.62,7.99 -1.15,17.98 -10.38,17.98 h -26.64 c -4.28,0 -8.24,-2.29 -10.38,-6 l -46.1,-79.94 c -2.14,-3.71 -2.14,-8.27 0,-11.98 l 46.1,-79.85 c 2.14,-3.71 6.1,-5.99 10.38,-5.99 h 26.64 c 9.23,0 15,9.99 10.37,17.98 l -39.24,67.86 c -2.15,3.7 -2.15,8.28 -0.01,11.99 z" />
	<path class="st1" d="M 229.76,230.53 190.5,162.58 c -4.62,-7.99 1.15,-17.98 10.38,-17.98 h 26.64 c 4.28,0 8.24,2.29 10.38,6 l 46.1,79.94 c 2.14,3.71 2.14,8.27 0,11.98 l -46.1,79.85 c -2.14,3.71 -6.1,5.99 -10.38,5.99 h -26.64 c -9.23,0 -15,-9.99 -10.37,-17.98 l 39.24,-67.86 c 2.15,-3.71 2.16,-8.28 0.01,-11.99 z" />
</g>
</svg>
